<?xml version="1.0" encoding="UTF-8"?>
<svg id="_レイヤー_1" data-name="レイヤー_1" xmlns="http://www.w3.org/2000/svg" width="100" height="40" viewBox="0 0 100 40">
  <defs>
    <style>
      .cls-1 {
        fill: #fff;
      }

      .cls-2 {
        fill: #333;
      }
    </style>
  </defs>
  <g>
    <g>
      <rect class="cls-1" x="11.73" y="8.23" width="74.54" height="21.54"/>
      <path class="cls-2" d="M86.04,8.46v21.08H11.96V8.46h74.08M86.5,8H11.5v22h75V8h0Z"/>
    </g>
    <g>
      <path class="cls-2" d="M13.42,31.77c-.88,0-1.6-.67-1.68-1.53h76.52c-.08.86-.8,1.53-1.68,1.53H13.42Z"/>
      <path class="cls-2" d="M87.98,30.47c-.17.61-.74,1.06-1.4,1.06H13.42c-.67,0-1.23-.45-1.4-1.06h75.96M88.42,30H11.58s-.08.03-.08.08c0,1.06.87,1.92,1.92,1.92h73.15c1.06,0,1.92-.86,1.92-1.92,0-.04-.03-.08-.08-.08h0Z"/>
    </g>
    <g>
      <path class="cls-2" d="M86.58,31.87l.06-23.79c.87.05,1.74,1.84,1.74,2.92v19.09c0,.98-.8,1.78-1.78,1.78h-.01Z"/>
      <path class="cls-2" d="M86.76,8.29c.77.22,1.48,1.78,1.48,2.71v19.09c0,.85-.64,1.55-1.48,1.64V8.29M86.58,8s-.08.03-.08.08v23.85s.03.08.08.08h.01c1.05,0,1.91-.86,1.91-1.91V11c0-1.06-.86-3-1.92-3h0Z"/>
    </g>
  </g>
  <g>
    <path class="cls-2" d="M18.92,13.79v4.58h3.73v-4.58h1.1v10.97h-1.1v-5.42h-3.73v5.42h-1.08v-10.97h1.08Z"/>
    <path class="cls-2" d="M25.53,13.79h5.83v1.02h-2.39v9.93h-1.06v-9.93h-2.38v-1.02Z"/>
    <path class="cls-2" d="M33.51,24.74v-10.95h1.04l2.68,6.45,2.66-6.45h1.08v10.95h-1.09v-8.55l-2.21,5.29h-.93l-2.19-5.28v8.54h-1.04Z"/>
    <path class="cls-2" d="M44.36,13.79v9.93h3.75v1.02h-4.84v-10.95h1.09Z"/>
    <path class="cls-2" d="M55.17,13.79l-3.67,11.55h-1.06l3.67-11.55h1.06Z"/>
    <path class="cls-2" d="M64.25,14.64c-.87,0-1.57.42-2.11,1.25s-.8,1.96-.8,3.37.28,2.53.83,3.37,1.25,1.25,2.08,1.25c.7,0,1.39-.29,2.07-.85l.38.9c-.74.63-1.58.94-2.5.94-1.19,0-2.14-.51-2.86-1.53s-1.07-2.38-1.07-4.09.35-3.1,1.06-4.1,1.67-1.51,2.87-1.51c.93,0,1.76.32,2.5.96l-.38.9c-.68-.57-1.37-.85-2.07-.85Z"/>
    <path class="cls-2" d="M70.98,14.61c-.44,0-.78.15-1.03.46-.25.31-.37.73-.37,1.27,0,.97.48,1.67,1.43,2.1.88.36,1.51.81,1.89,1.35s.57,1.24.57,2.1c0,.98-.22,1.73-.67,2.24s-1.07.77-1.88.77c-.9,0-1.72-.32-2.45-.96l.34-.99c.67.62,1.37.93,2.1.93.47,0,.83-.17,1.09-.51.26-.34.39-.83.39-1.48,0-.6-.11-1.08-.33-1.43-.22-.35-.61-.66-1.17-.92-1.58-.65-2.37-1.71-2.37-3.19,0-.82.22-1.48.65-1.97.44-.49,1.03-.73,1.79-.73.81,0,1.59.24,2.34.71l-.27.93c-.69-.44-1.38-.66-2.07-.66Z"/>
    <path class="cls-2" d="M77.4,14.61c-.44,0-.78.15-1.03.46-.25.31-.37.73-.37,1.27,0,.97.48,1.67,1.43,2.1.88.36,1.51.81,1.89,1.35s.57,1.24.57,2.1c0,.98-.22,1.73-.67,2.24s-1.07.77-1.88.77c-.9,0-1.72-.32-2.45-.96l.34-.99c.67.62,1.37.93,2.1.93.47,0,.83-.17,1.09-.51.26-.34.39-.83.39-1.48,0-.6-.11-1.08-.33-1.43-.22-.35-.61-.66-1.17-.92-1.58-.65-2.37-1.71-2.37-3.19,0-.82.22-1.48.65-1.97.44-.49,1.03-.73,1.79-.73.81,0,1.59.24,2.34.71l-.27.93c-.69-.44-1.38-.66-2.07-.66Z"/>
  </g>
</svg>