<?xml version="1.0" encoding="UTF-8"?>
<svg id="_レイヤー_1" data-name="レイヤー_1" xmlns="http://www.w3.org/2000/svg" width="100" height="40" viewBox="0 0 100 40">
  <defs>
    <style>
      .cls-1 {
        fill: #fff;
      }

      .cls-2 {
        fill: #333;
      }
    </style>
  </defs>
  <g>
    <rect class="cls-1" x="11.73" y="8.23" width="74.54" height="21.54"/>
    <path class="cls-2" d="M86.04,8.46v21.08H11.96V8.46h74.08M86.5,8H11.5v22h75V8h0Z"/>
  </g>
  <g>
    <path class="cls-2" d="M13.42,31.77c-.88,0-1.6-.67-1.68-1.53h76.52c-.08.86-.8,1.53-1.68,1.53H13.42Z"/>
    <path class="cls-2" d="M87.98,30.47c-.17.61-.74,1.06-1.4,1.06H13.42c-.67,0-1.23-.45-1.4-1.06h75.96M88.42,30H11.58s-.08.03-.08.08c0,1.06.87,1.92,1.92,1.92h73.15c1.06,0,1.92-.86,1.92-1.92,0-.04-.03-.08-.08-.08h0Z"/>
  </g>
  <g>
    <path class="cls-2" d="M86.58,31.87l.06-23.79c.87.05,1.74,1.84,1.74,2.92v19.09c0,.98-.8,1.78-1.78,1.78h-.01Z"/>
    <path class="cls-2" d="M86.76,8.29c.77.22,1.48,1.78,1.48,2.71v19.09c0,.85-.64,1.55-1.48,1.64V8.29M86.58,8s-.08.03-.08.08v23.85s.03.08.08.08h.01c1.05,0,1.91-.86,1.91-1.91V11c0-1.06-.86-3-1.92-3h0Z"/>
  </g>
  <g>
    <path class="cls-2" d="M16.67,23.67l-.44-.34c0-.1,0-.28,0-.53,0-.25,0-.54,0-.86s0-.67,0-1.01c0-.35,0-.67,0-.98v-1.55c0-.33,0-.66,0-1,0-.34,0-.63-.01-.88,0-.25,0-.39,0-.42h.87c0,.13-.02.32-.02.58,0,.26,0,.54,0,.85v5.1c.49-.18,1-.4,1.55-.64.55-.25,1.1-.52,1.66-.81.56-.29,1.1-.6,1.61-.9s.99-.61,1.41-.91c.42-.3.77-.58,1.04-.84,0,.05.01.15.04.29.03.14.06.28.09.41.03.13.06.22.06.27-.42.36-.95.73-1.59,1.13s-1.31.79-2.04,1.18c-.73.39-1.46.75-2.2,1.07-.74.33-1.42.59-2.05.8Z"/>
    <path class="cls-2" d="M25.64,24.17s-.07-.11-.14-.21c-.06-.1-.13-.2-.21-.3-.07-.1-.14-.17-.19-.2.68-.29,1.36-.67,2.04-1.12s1.34-.97,1.96-1.53c.62-.57,1.18-1.17,1.68-1.81.5-.64.91-1.28,1.22-1.94-.37.03-.81.05-1.32.08s-1.03.06-1.57.09c-.54.03-1.04.06-1.5.08s-.84.04-1.12.06l-.1-.86c.2,0,.5,0,.92-.02.41-.01.88-.03,1.4-.05.52-.02,1.04-.05,1.55-.07.51-.03.97-.05,1.38-.08.41-.03.71-.06.9-.08l.56.35c-.21.58-.49,1.16-.83,1.73-.35.57-.74,1.12-1.18,1.65.28.23.58.49.92.78.33.29.67.6,1,.92s.64.63.93.93.52.57.71.8c-.05.04-.12.09-.21.18-.09.08-.18.17-.27.25s-.16.15-.2.2c-.17-.24-.4-.52-.68-.82-.28-.3-.58-.62-.9-.94-.32-.32-.64-.63-.96-.93-.32-.3-.61-.56-.87-.77-.72.77-1.51,1.47-2.36,2.11-.85.63-1.7,1.15-2.54,1.55Z"/>
    <path class="cls-2" d="M36.82,23.1s-.08-.09-.17-.18c-.09-.09-.17-.17-.25-.25-.08-.08-.15-.14-.19-.16.33-.19.65-.43.96-.71.31-.29.6-.59.86-.92.26-.32.47-.63.63-.93l.7.4c-.17.32-.39.65-.66,1-.28.35-.58.67-.91.98-.33.3-.65.56-.97.78ZM39.86,24.48c0-.05-.03-.13-.07-.25-.03-.11-.07-.23-.1-.34-.04-.12-.07-.2-.09-.24.56-.02.96-.08,1.18-.18.22-.1.33-.33.33-.66v-4.25h-3.03c-.33,0-.6,0-.82,0-.22,0-.34,0-.38,0v-.81s.16.01.38.01.49,0,.82,0c.32,0,.67,0,1.05,0h1.98v-2.46h.86v2.46h.86c.35,0,.71,0,1.09,0s.75,0,1.09,0,.63,0,.86,0,.36,0,.39,0v.81s-.17,0-.4,0c-.23,0-.52,0-.86,0h-3.04v4.35c0,.36-.06.66-.19.88-.13.22-.35.38-.66.49-.31.1-.73.17-1.25.21ZM45.93,23c-.16-.26-.38-.55-.64-.88-.26-.32-.54-.64-.84-.94-.29-.3-.57-.56-.83-.77l.57-.51c.27.22.56.48.86.79s.6.62.88.93c.28.31.51.59.68.83-.04.02-.12.06-.21.14-.1.07-.19.15-.29.23-.09.08-.15.14-.19.18ZM45.41,16.77c-.35,0-.64-.12-.88-.37-.24-.25-.36-.54-.36-.89s.12-.64.36-.89c.24-.25.54-.37.88-.37s.65.12.9.37c.24.25.36.54.36.89s-.12.64-.36.89c-.24.25-.54.37-.9.37ZM45.41,16.35c.23,0,.43-.08.6-.25.17-.16.25-.36.25-.6s-.08-.43-.25-.6c-.16-.16-.36-.25-.6-.25s-.43.08-.6.25c-.17.17-.25.36-.25.6s.08.43.25.6c.16.16.36.25.6.25Z"/>
    <path class="cls-2" d="M51.26,18.33c-.09-.1-.23-.23-.43-.39s-.42-.34-.66-.52c-.24-.18-.47-.35-.7-.49-.22-.15-.4-.25-.54-.31l.55-.7c.15.08.33.2.56.35.23.16.46.32.7.49.24.17.46.34.66.49.2.16.34.28.43.36l-.57.71ZM49.55,24.14l-.46-.82c.62-.17,1.25-.41,1.92-.71.66-.3,1.32-.65,1.97-1.04.65-.39,1.27-.8,1.86-1.24.59-.44,1.12-.88,1.6-1.33.48-.45.88-.88,1.2-1.29.02.04.05.13.11.25.06.12.12.24.18.36.07.12.11.2.12.24-.41.5-.93,1.03-1.57,1.57-.64.55-1.35,1.08-2.12,1.59s-1.57.98-2.4,1.4c-.83.42-1.63.76-2.41,1.02Z"/>
    <path class="cls-2" d="M62.24,20.14c-.1-.09-.25-.19-.45-.31-.2-.12-.41-.24-.64-.36-.23-.13-.46-.24-.68-.34s-.4-.17-.55-.21l.43-.75c.16.06.34.15.57.26s.45.23.68.35c.23.12.45.24.64.35.2.11.34.2.45.26l-.46.75ZM61.43,24.41l-.44-.82c.79-.25,1.59-.58,2.42-1s1.62-.88,2.39-1.4c.77-.52,1.47-1.06,2.1-1.62s1.15-1.1,1.56-1.63c.02.05.05.14.1.27.05.13.11.25.17.37.06.12.1.2.12.25-.43.51-.96,1.03-1.59,1.57-.63.53-1.32,1.05-2.07,1.55-.75.5-1.53.97-2.34,1.39s-1.61.78-2.41,1.08ZM63.9,17.55c-.07-.07-.2-.18-.39-.32s-.41-.29-.65-.46c-.24-.16-.47-.31-.68-.44-.21-.13-.38-.22-.49-.27l.47-.74c.14.08.32.19.53.33s.44.29.67.45c.23.16.44.3.63.44.19.13.33.24.43.31l-.52.7Z"/>
    <path class="cls-2" d="M73.25,24.48s-.06-.12-.12-.22c-.06-.1-.14-.21-.21-.32s-.14-.18-.18-.21c1.68-.59,3.08-1.43,4.18-2.53,1.11-1.1,1.89-2.47,2.35-4.13-.36,0-.79.02-1.31.03-.52.01-1.06.03-1.63.05-.57.02-1.13.03-1.68.05-.55.01-1.03.03-1.46.04-.43.01-.75.02-.96.03l-.06-.92c.19,0,.48.02.88.02s.85,0,1.36,0,1.04,0,1.58-.01c.54,0,1.06-.02,1.57-.03.5-.01.94-.03,1.33-.04.38-.01.65-.03.82-.05l.56.3c-.42,1.96-1.24,3.6-2.44,4.92-1.21,1.32-2.72,2.33-4.55,3.02ZM81.31,16.82c-.11-.18-.26-.38-.44-.6-.18-.22-.37-.43-.57-.64-.2-.2-.37-.37-.53-.5l.44-.36c.15.12.32.29.53.51.2.22.4.44.6.67.19.23.34.41.44.56l-.47.36ZM82.35,15.91c-.11-.18-.26-.38-.46-.59-.19-.21-.39-.42-.59-.62-.2-.2-.39-.36-.55-.48l.44-.38c.15.11.33.28.54.49.21.21.42.43.62.65.2.22.35.41.46.55l-.46.38Z"/>
  </g>
</svg>