<?xml version="1.0" encoding="UTF-8"?>
<svg id="_レイヤー_1" data-name="レイヤー_1" xmlns="http://www.w3.org/2000/svg" width="100" height="40" viewBox="0 0 100 40">
  <defs>
    <style>
      .cls-1 {
        fill: #fff;
      }

      .cls-2 {
        fill: #333;
      }
    </style>
  </defs>
  <g>
    <rect class="cls-1" x="11.73" y="8.23" width="74.54" height="21.54"/>
    <path class="cls-2" d="M86.04,8.46v21.08H11.96V8.46h74.08M86.5,8H11.5v22h75V8h0Z"/>
  </g>
  <g>
    <path class="cls-2" d="M13.42,31.77c-.88,0-1.6-.67-1.68-1.53h76.52c-.08.86-.8,1.53-1.68,1.53H13.42Z"/>
    <path class="cls-2" d="M87.98,30.47c-.17.61-.74,1.06-1.4,1.06H13.42c-.67,0-1.23-.45-1.4-1.06h75.96M88.42,30H11.58s-.08.03-.08.08c0,1.06.87,1.92,1.92,1.92h73.15c1.06,0,1.92-.86,1.92-1.92,0-.04-.03-.08-.08-.08h0Z"/>
  </g>
  <g>
    <path class="cls-2" d="M86.58,31.87l.06-23.79c.87.05,1.74,1.84,1.74,2.92v19.09c0,.98-.8,1.78-1.78,1.78h-.01Z"/>
    <path class="cls-2" d="M86.76,8.29c.77.22,1.48,1.78,1.48,2.71v19.09c0,.85-.64,1.55-1.48,1.64V8.29M86.58,8s-.08.03-.08.08v23.85s.03.08.08.08h.01c1.05,0,1.91-.86,1.91-1.91V11c0-1.06-.86-3-1.92-3h0Z"/>
  </g>
  <g>
    <path d="M22.83,14.06c.8-.17,1.55-.26,2.26-.26.98,0,1.73.29,2.24.87.52.58.77,1.4.77,2.48,0,1.16-.26,2.04-.78,2.64-.52.61-1.26.91-2.23.91-.48,0-.87-.03-1.17-.09v4.32h-1.11v-10.87ZM23.94,19.61c.33.08.7.12,1.1.12.63,0,1.12-.21,1.47-.64s.53-1.04.53-1.84-.17-1.4-.52-1.82c-.34-.41-.84-.62-1.49-.62-.38,0-.75.05-1.1.15v4.65Z"/>
    <path d="M29.6,13.67h1v4.46c.44-.77,1.01-1.16,1.72-1.16.66,0,1.15.27,1.46.82.31.54.47,1.41.47,2.59v4.54h-.98v-4.46c0-.97-.09-1.64-.27-2.02-.18-.38-.49-.56-.92-.56-.36,0-.7.29-1.01.88-.32.59-.47,1.25-.47,1.99v4.17h-1v-11.25Z"/>
    <path d="M40.22,23.99c-.5.73-1.16,1.1-1.96,1.1s-1.46-.37-1.95-1.1c-.49-.73-.74-1.72-.74-2.96s.25-2.23.74-2.96c.49-.73,1.14-1.1,1.95-1.1s1.46.37,1.95,1.1c.49.73.74,1.72.74,2.97s-.24,2.23-.72,2.95ZM39.46,18.7c-.3-.55-.7-.82-1.2-.82s-.9.28-1.19.83c-.3.55-.45,1.33-.45,2.32s.15,1.76.45,2.32.7.83,1.19.83.9-.28,1.2-.83.45-1.33.45-2.32c0-.99-.16-1.77-.46-2.33Z"/>
    <path d="M44.09,14.57v2.85h2.05v.92h-2.05v4.08c0,.7.06,1.16.17,1.4s.33.35.65.35c.3,0,.64-.08,1.01-.25l.17.9c-.42.18-.85.27-1.28.27-.62,0-1.07-.18-1.33-.55-.27-.37-.41-1-.41-1.9v-4.31h-1.2v-.92h1.2v-2.85h1.02Z"/>
    <path d="M52.08,23.99c-.5.73-1.16,1.1-1.96,1.1s-1.46-.37-1.95-1.1c-.49-.73-.74-1.72-.74-2.96s.25-2.23.74-2.96c.49-.73,1.14-1.1,1.95-1.1s1.46.37,1.95,1.1c.49.73.74,1.72.74,2.97s-.24,2.23-.72,2.95ZM51.32,18.7c-.3-.55-.7-.82-1.2-.82s-.9.28-1.19.83c-.3.55-.45,1.33-.45,2.32s.15,1.76.45,2.32.7.83,1.19.83.9-.28,1.2-.83.45-1.33.45-2.32c0-.99-.16-1.77-.46-2.33Z"/>
    <path d="M55.95,16.97c.68,0,1.33.2,1.96.6l-.21.89c-.63-.39-1.21-.58-1.75-.58-.38,0-.67.1-.86.32s-.29.51-.29.89c0,.36.08.65.25.86s.48.38.95.5c.72.17,1.25.45,1.59.84s.51.93.51,1.61-.19,1.22-.58,1.62c-.39.4-.92.59-1.59.59-.78,0-1.5-.25-2.16-.76l.24-.89c.65.49,1.29.73,1.92.73.36,0,.64-.11.83-.34.19-.23.29-.55.29-.97s-.09-.71-.26-.93c-.17-.22-.49-.39-.94-.51-.71-.17-1.23-.44-1.57-.82s-.5-.89-.5-1.54.19-1.15.58-1.53c.39-.38.92-.57,1.58-.57Z"/>
    <path d="M59.54,13.67h1v4.46c.44-.77,1.01-1.16,1.72-1.16.66,0,1.15.27,1.46.82.31.54.47,1.41.47,2.59v4.54h-.98v-4.46c0-.97-.09-1.64-.27-2.02-.18-.38-.49-.56-.92-.56-.36,0-.7.29-1.01.88-.32.59-.47,1.25-.47,1.99v4.17h-1v-11.25Z"/>
    <path d="M70.16,23.99c-.5.73-1.16,1.1-1.96,1.1s-1.46-.37-1.95-1.1c-.49-.73-.74-1.72-.74-2.96s.25-2.23.74-2.96c.49-.73,1.14-1.1,1.95-1.1s1.46.37,1.95,1.1c.49.73.74,1.72.74,2.97s-.24,2.23-.72,2.95ZM69.4,18.7c-.3-.55-.7-.82-1.2-.82s-.9.28-1.19.83c-.3.55-.45,1.33-.45,2.32s.15,1.76.45,2.32.7.83,1.19.83.9-.28,1.2-.83.45-1.33.45-2.32c0-.99-.16-1.77-.46-2.33Z"/>
    <path d="M74.98,25.09c-.71,0-1.26-.34-1.64-1.01v4.16h-1v-11.11h.96v.98c.39-.75.94-1.13,1.68-1.13s1.31.35,1.72,1.04c.42.7.62,1.7.62,3.01s-.21,2.28-.64,2.99c-.43.71-1,1.07-1.71,1.07ZM76.31,21.02c0-1.03-.13-1.81-.4-2.35-.26-.53-.63-.8-1.09-.8-.43,0-.79.27-1.07.81-.28.54-.42,1.29-.42,2.24v.21c0,.97.14,1.72.43,2.25.29.53.64.79,1.06.79.45,0,.81-.27,1.08-.82.27-.54.4-1.32.4-2.33Z"/>
  </g>
</svg>