<?xml version="1.0" encoding="UTF-8"?>
<svg id="_レイヤー_1" data-name="レイヤー_1" xmlns="http://www.w3.org/2000/svg" width="100" height="40" viewBox="0 0 100 40">
  <defs>
    <style>
      .cls-1 {
        fill: #fff;
      }

      .cls-2 {
        fill: #333;
      }
    </style>
  </defs>
  <g>
    <rect class="cls-1" x="11.73" y="8.23" width="74.54" height="21.54"/>
    <path class="cls-2" d="M86.04,8.46v21.08H11.96V8.46h74.08M86.5,8H11.5v22h75V8h0Z"/>
  </g>
  <g>
    <path class="cls-2" d="M13.42,31.77c-.88,0-1.6-.67-1.68-1.53h76.52c-.08.86-.8,1.53-1.68,1.53H13.42Z"/>
    <path class="cls-2" d="M87.98,30.47c-.17.61-.74,1.06-1.4,1.06H13.42c-.67,0-1.23-.45-1.4-1.06h75.96M88.42,30H11.58s-.08.03-.08.08c0,1.06.87,1.92,1.92,1.92h73.15c1.06,0,1.92-.86,1.92-1.92,0-.04-.03-.08-.08-.08h0Z"/>
  </g>
  <g>
    <path class="cls-2" d="M86.58,31.87l.06-23.79c.87.05,1.74,1.84,1.74,2.92v19.09c0,.98-.8,1.78-1.78,1.78h-.01Z"/>
    <path class="cls-2" d="M86.76,8.29c.77.22,1.48,1.78,1.48,2.71v19.09c0,.85-.64,1.55-1.48,1.64V8.29M86.58,8s-.08.03-.08.08v23.85s.03.08.08.08h.01c1.05,0,1.91-.86,1.91-1.91V11c0-1.06-.86-3-1.92-3h0Z"/>
  </g>
  <g>
    <path d="M23.05,25.16v-10.95h1.12v10.95h-1.12Z"/>
    <path d="M25.87,25.16v-11.25h1.04v11.25h-1.04Z"/>
    <path d="M28.55,25.16v-11.25h1.04v11.25h-1.04Z"/>
    <path d="M32.3,17.36v4.84c0,.8.09,1.36.26,1.68s.45.48.83.48c.36,0,.7-.28,1.01-.84.31-.56.46-1.23.46-2v-4.17h1.04v7.8h-.98l-.02-1.04c-.17.31-.38.57-.63.77-.35.27-.72.4-1.11.4-.64,0-1.11-.23-1.4-.7-.29-.47-.44-1.23-.44-2.28v-4.95h.97Z"/>
    <path d="M39.52,17.21c.68,0,1.33.2,1.96.6l-.21.89c-.63-.39-1.21-.58-1.75-.58-.38,0-.67.1-.86.32-.19.21-.28.51-.28.89,0,.36.08.65.25.86s.48.38.95.5c.72.17,1.25.45,1.59.84s.51.93.51,1.61-.2,1.22-.58,1.62c-.39.4-.92.59-1.59.59-.78,0-1.5-.25-2.16-.76l.24-.89c.65.49,1.29.73,1.92.73.36,0,.64-.11.83-.34s.29-.55.29-.97-.09-.71-.26-.93c-.18-.22-.49-.39-.94-.51-.71-.17-1.23-.44-1.57-.82-.34-.38-.5-.89-.5-1.54s.2-1.15.58-1.53.92-.57,1.58-.57Z"/>
    <path d="M44.95,14.81v2.85h2.06v.92h-2.06v4.08c0,.7.06,1.16.17,1.4s.33.35.65.35c.3,0,.63-.08,1-.25l.17.9c-.42.18-.84.27-1.27.27-.62,0-1.07-.18-1.33-.55-.27-.37-.41-1-.41-1.9v-4.31h-1.2v-.92h1.2v-2.85h1.02Z"/>
    <path d="M48.59,17.36h1l.02,1.38c.61-1.03,1.48-1.54,2.61-1.53v.96c-.82,0-1.46.31-1.91.92-.45.61-.67,1.4-.67,2.37v3.72h-1.05v-7.81Z"/>
    <path d="M55.62,17.21c.8,0,1.37.23,1.72.68.35.45.52,1.19.52,2.22v2.96c0,.7.06,1.4.18,2.1h-.97c-.05-.3-.08-.64-.1-1.02-.17.31-.39.56-.65.75-.38.27-.81.4-1.29.4-.54,0-.97-.2-1.3-.61-.32-.4-.49-.95-.49-1.64,0-.87.28-1.56.84-2.07.56-.51,1.33-.77,2.33-.77h.45v-.07c0-.76-.09-1.29-.27-1.58-.18-.29-.5-.44-.96-.44-.62,0-1.26.23-1.92.69l-.18-.89c.66-.47,1.36-.71,2.1-.71ZM54.25,23.02c0,.45.09.8.26,1.05s.4.38.68.38c.44,0,.82-.25,1.16-.74.33-.49.5-1.1.5-1.81v-.84h-.45c-.69,0-1.22.17-1.59.52-.37.35-.56.83-.56,1.43Z"/>
    <path d="M61.54,14.81v2.85h2.05v.92h-2.05v4.08c0,.7.06,1.16.17,1.4.11.23.33.35.65.35.3,0,.63-.08,1-.25l.17.9c-.42.18-.85.27-1.28.27-.62,0-1.06-.18-1.33-.55-.27-.37-.41-1-.41-1.9v-4.31h-1.2v-.92h1.2v-2.85h1.02Z"/>
    <path d="M69.68,24.23c-.5.73-1.16,1.1-1.96,1.1s-1.46-.37-1.95-1.1c-.49-.73-.74-1.72-.74-2.96s.25-2.23.74-2.96c.49-.73,1.14-1.1,1.95-1.1s1.46.37,1.95,1.1c.49.73.73,1.72.73,2.97s-.24,2.23-.72,2.95ZM68.92,18.93c-.3-.55-.7-.82-1.19-.82s-.9.28-1.2.83c-.3.55-.45,1.33-.45,2.32s.15,1.76.45,2.32.7.83,1.2.83.9-.28,1.2-.83.45-1.33.45-2.32c0-.99-.16-1.77-.46-2.33Z"/>
    <path d="M71.71,17.36h1l.02,1.38c.61-1.03,1.48-1.54,2.61-1.53v.96c-.82,0-1.46.31-1.91.92-.45.61-.67,1.4-.67,2.37v3.72h-1.05v-7.81Z"/>
  </g>
</svg>