<?xml version="1.0" encoding="UTF-8"?>
<svg id="_レイヤー_1" data-name="レイヤー_1" xmlns="http://www.w3.org/2000/svg" width="100" height="40" viewBox="0 0 100 40">
  <defs>
    <style>
      .cls-1 {
        fill: #fff;
      }

      .cls-2 {
        fill: #333;
      }
    </style>
  </defs>
  <g>
    <g>
      <rect class="cls-1" x="11.73" y="8.23" width="74.54" height="21.54"/>
      <path class="cls-2" d="M86.04,8.46v21.08H11.96V8.46h74.08M86.5,8H11.5v22h75V8h0Z"/>
    </g>
    <g>
      <path class="cls-2" d="M13.42,31.77c-.88,0-1.6-.67-1.68-1.53h76.52c-.08.86-.8,1.53-1.68,1.53H13.42Z"/>
      <path class="cls-2" d="M87.98,30.47c-.17.61-.74,1.06-1.4,1.06H13.42c-.67,0-1.23-.45-1.4-1.06h75.96M88.42,30H11.58s-.08.03-.08.08c0,1.06.87,1.92,1.92,1.92h73.15c1.06,0,1.92-.86,1.92-1.92,0-.04-.03-.08-.08-.08h0Z"/>
    </g>
    <g>
      <path class="cls-2" d="M86.58,31.87l.06-23.79c.87.05,1.74,1.84,1.74,2.92v19.09c0,.98-.8,1.78-1.78,1.78h-.01Z"/>
      <path class="cls-2" d="M86.76,8.29c.77.22,1.48,1.78,1.48,2.71v19.09c0,.85-.64,1.55-1.48,1.64V8.29M86.58,8s-.08.03-.08.08v23.85s.03.08.08.08h.01c1.05,0,1.91-.86,1.91-1.91V11c0-1.06-.86-3-1.92-3h0Z"/>
    </g>
  </g>
  <g>
    <path d="M40.94,18.96c0,1.89-.35,3.33-1.05,4.31-.7.98-1.71,1.47-3.03,1.47-.63,0-1.29-.08-1.98-.24v-10.77c.69-.17,1.35-.26,1.98-.26,1.31,0,2.32.47,3.02,1.42.71.95,1.06,2.3,1.06,4.06ZM36.86,14.51c-.35,0-.66.04-.92.13v8.96c.25.1.56.15.92.15,2.03,0,3.04-1.59,3.04-4.77,0-1.48-.26-2.6-.77-3.35s-1.27-1.12-2.27-1.12Z"/>
    <path d="M43.07,21.13c0,.85.18,1.51.51,2,.33.49.75.73,1.26.73s1.08-.2,1.68-.6l.27.86c-.64.43-1.32.64-2.03.64-.81,0-1.46-.37-1.96-1.1-.5-.73-.75-1.72-.75-2.96s.23-2.25.71-2.98c.47-.72,1.1-1.08,1.9-1.08s1.41.34,1.85,1.03.66,1.67.66,2.96c0,.13-.02.3-.04.5h-4.05ZM43.07,20.24h3.1c0-.87-.15-1.54-.42-2.01s-.64-.71-1.1-.71-.86.24-1.14.71c-.28.48-.43,1.14-.45,2Z"/>
    <path d="M50.33,16.64c.68,0,1.33.2,1.97.6l-.21.89c-.63-.39-1.22-.58-1.76-.58-.38,0-.67.1-.85.32s-.28.51-.28.89c0,.36.08.65.25.86.17.21.48.38.95.5.72.17,1.25.45,1.59.84s.51.93.51,1.61-.2,1.22-.59,1.62c-.39.4-.92.59-1.59.59-.78,0-1.5-.25-2.16-.76l.24-.89c.65.49,1.29.73,1.92.73.36,0,.64-.11.83-.34.19-.23.29-.55.29-.97s-.09-.71-.26-.93c-.18-.22-.49-.39-.94-.51-.71-.17-1.23-.44-1.57-.82-.34-.38-.5-.89-.5-1.54s.19-1.15.58-1.53c.39-.38.92-.57,1.57-.57Z"/>
    <path d="M53.66,14.99v-1.65h1.04v1.65h-1.04ZM53.66,24.59v-7.8h1.04v7.8h-1.04Z"/>
    <path d="M55.87,20.54c0-1.25.2-2.21.61-2.89.41-.67.97-1.01,1.69-1.01.76,0,1.33.37,1.71,1.11l.02-.96h.98v7.15c0,2.73-.89,4.1-2.67,4.1-.62,0-1.24-.16-1.85-.48l.24-.89c.56.31,1.09.46,1.61.46.56,0,.97-.25,1.24-.73.27-.49.4-1.29.4-2.42v-.57c-.38.68-.94,1.02-1.68,1.02-.68,0-1.23-.35-1.66-1.06-.43-.71-.64-1.66-.64-2.83ZM56.88,20.54c0,.93.14,1.66.41,2.2.27.54.62.8,1.05.8s.77-.26,1.06-.78c.29-.52.43-1.23.43-2.15v-.15c0-.9-.14-1.61-.43-2.14-.29-.52-.64-.79-1.06-.79-.45,0-.8.25-1.07.76-.26.51-.39,1.26-.39,2.24Z"/>
    <path d="M62.67,16.79h.96l.02,1.05c.17-.31.38-.57.64-.79.34-.27.71-.41,1.11-.41.66,0,1.15.27,1.46.82.31.54.47,1.41.47,2.59v4.54h-.98v-4.46c0-.97-.09-1.64-.27-2.02s-.49-.56-.92-.56c-.35,0-.68.29-1,.86s-.48,1.24-.48,2v4.17h-1v-7.8Z"/>
  </g>
</svg>