<?xml version="1.0" encoding="UTF-8"?>
<svg id="_レイヤー_1" data-name="レイヤー_1" xmlns="http://www.w3.org/2000/svg" width="100" height="40" viewBox="0 0 100 40">
  <defs>
    <style>
      .cls-1 {
        fill: #fff;
      }

      .cls-2 {
        fill: #333;
      }
    </style>
  </defs>
  <g>
    <g>
      <rect class="cls-1" x="11.73" y="8.23" width="74.54" height="21.54"/>
      <path class="cls-2" d="M86.04,8.46v21.08H11.96V8.46h74.08M86.5,8H11.5v22h75V8h0Z"/>
    </g>
    <g>
      <path class="cls-2" d="M13.42,31.77c-.88,0-1.6-.67-1.68-1.53h76.52c-.08.86-.8,1.53-1.68,1.53H13.42Z"/>
      <path class="cls-2" d="M87.98,30.47c-.17.61-.74,1.06-1.4,1.06H13.42c-.67,0-1.23-.45-1.4-1.06h75.96M88.42,30H11.58s-.08.03-.08.08c0,1.06.87,1.92,1.92,1.92h73.15c1.06,0,1.92-.86,1.92-1.92,0-.04-.03-.08-.08-.08h0Z"/>
    </g>
    <g>
      <path class="cls-2" d="M86.58,31.87l.06-23.79c.87.05,1.74,1.84,1.74,2.92v19.09c0,.98-.8,1.78-1.78,1.78h-.01Z"/>
      <path class="cls-2" d="M86.76,8.29c.77.22,1.48,1.78,1.48,2.71v19.09c0,.85-.64,1.55-1.48,1.64V8.29M86.58,8s-.08.03-.08.08v23.85s.03.08.08.08h.01c1.05,0,1.91-.86,1.91-1.91V11c0-1.06-.86-3-1.92-3h0Z"/>
    </g>
  </g>
  <g>
    <path class="cls-2" d="M34.76,15.94v7.65c0,1.4-.19,2.35-.58,2.85-.39.5-1.16.75-2.31.75l-.03-.92c.8,0,1.31-.17,1.54-.5.22-.34.34-1.04.34-2.12v-7.71h1.05ZM33.71,14.14v-1.65h1.05v1.65h-1.05Z"/>
    <path class="cls-2" d="M39.83,23.9c-1.17,0-2.11-.51-2.8-1.54-.7-1.03-1.05-2.39-1.05-4.09s.35-3.07,1.05-4.09c.7-1.03,1.63-1.54,2.8-1.54s2.1.51,2.8,1.54,1.05,2.39,1.05,4.09c0,1.19-.19,2.23-.58,3.1-.38.88-.9,1.52-1.54,1.94v.03c.5.21.97.55,1.41,1.01.44.46.82,1.01,1.14,1.65h-1.25c-.38-.79-.79-1.34-1.22-1.64-.43-.31-1.04-.46-1.81-.46ZM39.83,13.64c-.84,0-1.51.42-2.02,1.25s-.76,1.96-.76,3.37.25,2.53.76,3.37,1.18,1.25,2.02,1.25,1.49-.42,2-1.25.76-1.96.76-3.37-.25-2.53-.76-3.37-1.17-1.25-2-1.25Z"/>
    <path class="cls-2" d="M46.14,15.94v4.84c0,.8.09,1.36.26,1.68.17.32.45.48.83.48.36,0,.69-.28,1-.84.31-.56.46-1.23.46-2v-4.17h1.04v7.8h-.98v-1.04c-.19.31-.4.57-.65.77-.35.27-.72.4-1.11.4-.64,0-1.11-.23-1.4-.7-.29-.47-.44-1.23-.44-2.28v-4.95h.97Z"/>
    <path class="cls-2" d="M51.95,20.27c0,.85.18,1.51.51,2s.75.73,1.26.73,1.08-.2,1.68-.6l.27.86c-.64.43-1.32.64-2.03.64-.81,0-1.46-.37-1.96-1.1s-.75-1.72-.75-2.96.24-2.25.71-2.98c.47-.72,1.1-1.08,1.91-1.08s1.4.34,1.84,1.03c.44.69.66,1.67.66,2.96,0,.13-.02.3-.04.5h-4.05ZM51.95,19.39h3.1c0-.87-.15-1.54-.42-2.01s-.63-.71-1.09-.71-.86.24-1.14.71c-.28.48-.43,1.14-.45,2Z"/>
    <path class="cls-2" d="M57.12,15.94h1l.02,1.38c.61-1.03,1.48-1.54,2.61-1.53v.96c-.82,0-1.46.31-1.91.92-.45.61-.67,1.4-.67,2.37v3.72h-1.05v-7.81Z"/>
    <path class="cls-2" d="M62.48,15.94l1.56,6.12,1.71-6.12h1.07l-3.33,11.1h-1.07l1.08-3.34-2.1-7.75h1.08Z"/>
  </g>
</svg>